PathFileType	4	(X/Y/Z)	/Users/itak/Documents/Research/Walk-IL/dataset/trc/00006_00004.trc
DataRate	CameraRate	NumFrames	NumMarkers	Units	OrigDataRate	OrigDataStartFrame	OrigNumFrames
100.000000	100.000000	4	53	mm	100.000000	154	616
Frame#	Time	RPSI			LPSI			L3			STRN			T10			C7			CLAV			RBAK			LBAK			LSHO			LUPA			LAEL			LAOL			LWTS			LWPS			LFRA			LIFD			LHPS			LHTS			RSHO			RUPA			RAEL			RAOL			RWTS			RWPS			RFRA			RIFD			RHTS			RHPS			RBHD			LFHD			RFHD			LBHD			LHIP			RHIP			RASI			LASI			LKNE			LTHI			LANK			LTIP			LTOE			LMT1			LMT5			LHEE			RKNE			RTHI			RANK			RTIP			RTOE			RMT1			RMT5			RHEE			
		X1	Y1	Z1	X2	Y2	Z2	X3	Y3	Z3	X4	Y4	Z4	X5	Y5	Z5	X6	Y6	Z6	X7	Y7	Z7	X8	Y8	Z8	X9	Y9	Z9	X10	Y10	Z10	X11	Y11	Z11	X12	Y12	Z12	X13	Y13	Z13	X14	Y14	Z14	X15	Y15	Z15	X16	Y16	Z16	X17	Y17	Z17	X18	Y18	Z18	X19	Y19	Z19	X20	Y20	Z20	X21	Y21	Z21	X22	Y22	Z22	X23	Y23	Z23	X24	Y24	Z24	X25	Y25	Z25	X26	Y26	Z26	X27	Y27	Z27	X28	Y28	Z28	X29	Y29	Z29	X30	Y30	Z30	X31	Y31	Z31	X32	Y32	Z32	X33	Y33	Z33	X34	Y34	Z34	X35	Y35	Z35	X36	Y36	Z36	X37	Y37	Z37	X38	Y38	Z38	X39	Y39	Z39	X40	Y40	Z40	X41	Y41	Z41	X42	Y42	Z42	X43	Y43	Z43	X44	Y44	Z44	X45	Y45	Z45	X46	Y46	Z46	X47	Y47	Z47	X48	Y48	Z48	X49	Y49	Z49	X50	Y50	Z50	X51	Y51	Z51	X52	Y52	Z52	X53	Y53	Z53	

155	1.54	-1238.219116210938	1071.2255859375	-162.6287078857422	-1257.148681640625	1065.470092773438	-325.6563415527344	-1251.714233398438	1132.432373046875	-252.2043151855469	-1031.209228515625	1323.391479492188	-263.590087890625	-1279.955200195312	1272.653930664062	-253.8811340332031	-1236.152954101562	1540.399780273438	-268.0133056640625	-1075.34619140625	1449.263916015625	-266.773681640625	-1282.265625	1403.195678710938	-185.6636657714844	-1255.063110351562	1498.408081054688	-365.4604187011719	-1154.0888671875	1506.046997070312	-441.84033203125	-1182.97412109375	1380.139282226562	-518.6433715820312	-1177.828369140625	1160.424926757812	-539.1011962890625	-1235.9931640625	1149.471435546875	-450.6998901367188	-1090.5126953125	908.9205932617188	-475.9346618652344	-1166.303833007812	893.5697021484375	-519.8038940429688	-1163.818237304688	1044.531372070312	-542.06982421875	-1064.165649414062	727.3577270507812	-452.0173950195312	-1132.486938476562	804.4014892578125	-516.190185546875	-1066.343505859375	817.5554809570312	-487.0741577148438	-1152.634643554688	1528.734252929688	-95.57862854003906	-1161.732666015625	1455.601440429688	-22.57150077819824	-1187.738647460938	1185.69091796875	-0.2355568557977676	-1196.669555664062	1158.925170898438	-96.79350280761719	-1057.001953125	929.1202392578125	-42.03035354614258	-1117.355834960938	912.9044799804688	25.80476188659668	-1171.85107421875	1110.325439453125	13.10340213775635	-1038.017211914062	750.3645629882812	-67.09521484375	-1020.33740234375	820.2384033203125	-30.61080741882324	-1073.822387695312	813.7119140625	21.40947341918945	-1186.833129882812	1726.34765625	-335.2426147460938	-1000.868896484375	1737.57958984375	-220.8468322753906	-1004.878479003906	1735.528686523438	-319.0887145996094	-1173.260620117188	1724.379272460938	-191.0695953369141	-1172.806884765625	964.1660766601562	-442.0903930664062	-1116.438110351562	964.1084594726562	-72.93495178222656	-1021.910583496094	993.6903686523438	-155.9236145019531	-1050.21142578125	1008.076538085938	-389.4497375488281	-1138.802368164062	517.3187866210938	-400.4595336914062	-1160.541381835938	654.6820678710938	-433.5163879394531	-1234.977783203125	39.95062637329102	-396.2119445800781	-1221.919555664062	289.092529296875	-414.7908630371094	-1014.360168457031	41.89692687988281	-334.1379089355469	-1073.3369140625	50.77164459228516	-316.8358154296875	-1110.629760742188	38.92497253417969	-417.25244140625	-1302.954833984375	46.68639755249023	-341.201416015625	-1114.83251953125	527.2049560546875	-118.1189498901367	-1094.661010742188	795.5320434570312	-75.02240753173828	-1242.62158203125	48.64822387695312	-124.0706634521484	-1142.7548828125	404.0889282226562	-114.7185134887695	-1015.010925292969	45.80955123901367	-182.22900390625	-1079.982299804688	50.75798416137695	-208.6864471435547	-1092.662963867188	45.85598754882812	-112.5131988525391	-1302.33740234375	49.12504196166992	-165.4794311523438	
156	1.55	-1237.91259765625	1071.187255859375	-162.1288757324219	-1256.810546875	1065.504638671875	-325.1446533203125	-1251.312866210938	1132.505249023438	-251.6529083251953	-1030.690307617188	1323.245483398438	-262.95556640625	-1279.492797851562	1272.790405273438	-253.3344879150391	-1235.383544921875	1540.504028320312	-267.4053039550781	-1074.691040039062	1449.138427734375	-266.1180114746094	-1281.669067382812	1403.301025390625	-185.1254730224609	-1254.256469726562	1498.505249023438	-364.8421936035156	-1153.278686523438	1506.081298828125	-441.1835021972656	-1182.20849609375	1380.258178710938	-518.0983276367188	-1177.165161132812	1160.567138671875	-538.8058471679688	-1235.445922851562	1149.539306640625	-450.4778747558594	-1089.841918945312	909.0160522460938	-475.7841491699219	-1165.577026367188	893.6936645507812	-519.6889038085938	-1163.140991210938	1044.682495117188	-541.8439331054688	-1063.469116210938	727.5731811523438	-451.9602966308594	-1131.817138671875	804.5280151367188	-516.117919921875	-1065.612670898438	817.6367797851562	-486.879638671875	-1151.950805664062	1528.66455078125	-94.93621063232422	-1161.175048828125	1455.535400390625	-21.95937919616699	-1187.625122070312	1185.658447265625	0.2818805277347565	-1196.527221679688	1158.92578125	-96.27893829345703	-1057.031616210938	928.976318359375	-41.44242858886719	-1117.43603515625	912.7899780273438	26.32989692687988	-1171.8359375	1110.29248046875	13.62645053863525	-1038.081787109375	750.3308715820312	-66.62623596191406	-1020.515319824219	820.1046752929688	-30.11383247375488	-1074.068481445312	813.554443359375	21.88654899597168	-1186.025512695312	1726.134765625	-334.648681640625	-1000.232849121094	1737.736083984375	-219.9889221191406	-1004.159118652344	1735.681762695312	-318.2129211425781	-1172.718505859375	1724.21875	-190.3812255859375	-1172.786987304688	964.247314453125	-441.7041015625	-1116.113403320312	964.007568359375	-72.52500915527344	-1021.714233398438	993.5390014648438	-155.5023040771484	-1050.002319335938	1008.078979492188	-389.0550842285156	-1138.616455078125	517.3363647460938	-400.3319091796875	-1160.4072265625	654.7559814453125	-433.3039855957031	-1234.974365234375	39.92875289916992	-396.2643127441406	-1221.868530273438	289.1475219726562	-414.7116088867188	-1014.390686035156	41.94047546386719	-334.1654052734375	-1073.37890625	50.82627868652344	-316.8811340332031	-1110.6650390625	38.88154983520508	-417.2734680175781	-1302.977294921875	46.63588714599609	-341.2358093261719	-1114.181030273438	527.1181640625	-118.0511779785156	-1094.24072265625	795.3924560546875	-74.65965270996094	-1242.621337890625	48.64603042602539	-124.045524597168	-1142.165283203125	403.9292297363281	-114.7400665283203	-1015.021850585938	45.84309768676758	-182.2389373779297	-1080.00244140625	50.75353240966797	-208.7165832519531	-1092.66455078125	45.86024856567383	-112.5600738525391	-1302.364013671875	49.03953170776367	-165.4565124511719	
157	1.56	-1237.559814453125	1071.14111328125	-161.5770111083984	-1256.449462890625	1065.542236328125	-324.5752258300781	-1250.891357421875	1132.576171875	-251.0523376464844	-1030.125122070312	1323.097534179688	-262.2789916992188	-1278.982788085938	1272.929443359375	-252.7258758544922	-1234.565795898438	1540.614135742188	-266.7536926269531	-1073.972900390625	1449.002319335938	-265.4187622070312	-1281.008666992188	1403.409545898438	-184.5265808105469	-1253.40771484375	1498.597290039062	-364.1776733398438	-1152.423583984375	1506.115844726562	-440.4778137207031	-1181.405639648438	1380.3759765625	-517.5022583007812	-1176.47509765625	1160.710205078125	-538.4505004882812	-1234.86767578125	1149.611083984375	-450.1965942382812	-1089.170654296875	909.099365234375	-475.5880432128906	-1164.819946289062	893.8158569335938	-519.5133666992188	-1162.4443359375	1044.832885742188	-541.56201171875	-1062.750610351562	727.7418823242188	-451.8240661621094	-1131.123168945312	804.654052734375	-515.9970703125	-1064.887084960938	817.7232666015625	-486.641357421875	-1151.222778320312	1528.5791015625	-94.24517822265625	-1160.563842773438	1455.473022460938	-21.28993606567383	-1187.485961914062	1185.629516601562	0.8543369174003601	-1196.35009765625	1158.927856445312	-95.70895385742188	-1057.043823242188	928.816162109375	-40.79837799072266	-1117.54052734375	912.6728515625	26.91450500488281	-1171.795776367188	1110.259643554688	14.21024799346924	-1038.189697265625	750.2376708984375	-66.08362579345703	-1020.718627929688	819.9326171875	-29.56233215332031	-1074.354858398438	813.39453125	22.43130302429199	-1185.151733398438	1725.92919921875	-333.9994812011719	-999.5230102539062	1737.868408203125	-219.0824737548828	-1003.355102539062	1735.821166992188	-317.2952270507812	-1172.119873046875	1724.046508789062	-189.6691741943359	-1172.687255859375	964.3226318359375	-441.2624206542969	-1115.6982421875	963.9061279296875	-72.06114196777344	-1021.478393554688	993.385498046875	-155.059814453125	-1049.742797851562	1008.083251953125	-388.6151123046875	-1138.373046875	517.3506469726562	-400.1640930175781	-1160.22216796875	654.8275756835938	-433.048095703125	-1234.9716796875	39.90972137451172	-396.3141174316406	-1221.804565429688	289.2099914550781	-414.6157531738281	-1014.418884277344	41.98439788818359	-334.1929016113281	-1073.428588867188	50.88605880737305	-316.9239807128906	-1110.696533203125	38.84429931640625	-417.2896423339844	-1303.002563476562	46.59474182128906	-341.2698059082031	-1113.538818359375	527.0428466796875	-117.9518051147461	-1093.775634765625	795.24072265625	-74.29958343505859	-1242.619506835938	48.63734436035156	-124.0188903808594	-1141.586791992188	403.7703247070312	-114.7350082397461	-1015.033752441406	45.87533187866211	-182.2491912841797	-1080.021362304688	50.75008392333984	-208.7444152832031	-1092.667358398438	45.86725997924805	-112.5990219116211	-1302.396850585938	48.9485969543457	-165.4338989257812	
158	1.57	-1237.16650390625	1071.088134765625	-160.9769897460938	-1256.0810546875	1065.581665039062	-323.9560546875	-1250.454956054688	1132.64599609375	-250.4046478271484	-1029.509765625	1322.948364257812	-261.5588989257812	-1278.425659179688	1273.069946289062	-252.0570678710938	-1233.695068359375	1540.725830078125	-266.0574645996094	-1073.186279296875	1448.859008789062	-264.67626953125	-1280.295532226562	1403.51708984375	-183.873291015625	-1252.514038085938	1498.68701171875	-363.4697875976562	-1151.517333984375	1506.152587890625	-439.7261962890625	-1180.56201171875	1380.494140625	-516.8549194335938	-1175.760131835938	1160.85400390625	-538.0325927734375	-1234.244506835938	1149.689453125	-449.8475646972656	-1088.499755859375	909.17236328125	-475.3357238769531	-1164.046752929688	893.9386596679688	-519.2764892578125	-1161.729614257812	1044.98193359375	-541.2227172851562	-1062.003662109375	727.8491821289062	-451.5930480957031	-1130.396118164062	804.7794189453125	-515.8245849609375	-1064.179321289062	817.8211669921875	-486.37060546875	-1150.442749023438	1528.483276367188	-93.5042724609375	-1159.898681640625	1455.411987304688	-20.56405830383301	-1187.316040039062	1185.604248046875	1.483052253723145	-1196.133178710938	1158.931396484375	-95.08512115478516	-1057.053100585938	928.6390991210938	-40.10715484619141	-1117.66650390625	912.5524291992188	27.5576171875	-1171.730102539062	1110.224731445312	14.85269641876221	-1038.363403320312	750.0711059570312	-65.44994354248047	-1020.932067871094	819.71728515625	-28.94400215148926	-1074.6630859375	813.2377319335938	23.04520416259766	-1184.217895507812	1725.734375	-333.2913208007812	-998.7406616210938	1737.9794921875	-218.1293029785156	-1002.470825195312	1735.95068359375	-316.337158203125	-1171.454956054688	1723.858520507812	-188.9329986572266	-1172.499267578125	964.3939819335938	-440.7625427246094	-1115.198852539062	963.807373046875	-71.54086303710938	-1021.191711425781	993.2313842773438	-154.5951843261719	-1049.4423828125	1008.08251953125	-388.1326599121094	-1138.074951171875	517.3619384765625	-399.9547424316406	-1159.98193359375	654.8930053710938	-432.7457885742188	-1234.97021484375	39.89256286621094	-396.3610229492188	-1221.727294921875	289.2792663574219	-414.50146484375	-1014.445495605469	42.02913665771484	-334.2211303710938	-1073.482788085938	50.94915390014648	-316.964111328125	-1110.723510742188	38.81404113769531	-417.3027038574219	-1303.031860351562	46.56553649902344	-341.3023986816406	-1112.909423828125	526.9703369140625	-117.8229370117188	-1093.271240234375	795.0816040039062	-73.94779968261719	-1242.615356445312	48.62083053588867	-123.9916763305664	-1141.021606445312	403.6096801757812	-114.6913146972656	-1015.047668457031	45.90663146972656	-182.2599639892578	-1080.0400390625	50.74761581420898	-208.7698211669922	-1092.675903320312	45.87767791748047	-112.6314697265625	-1302.435668945312	48.8520393371582	-165.4110107421875	
